<?xml version="1.0" encoding="UTF-8" standalone="no" ?>
<!DOCTYPE svg PUBLIC "-//W3C//DTD SVG 1.1//EN" "http://www.w3.org/Graphics/SVG/1.1/DTD/svg11.dtd">
<svg xmlns="http://www.w3.org/2000/svg" xmlns:xlink="http://www.w3.org/1999/xlink" version="1.1" width="500" height="500" viewBox="0 0 500 500" xml:space="preserve">
<desc>Created with Fabric.js 4.6.0</desc>
<defs>
</defs>
<g transform="matrix(1 0 0 1 248.72 242.98)" id="3J37il6oAd9dZyp21kYaC"  >
<path style="stroke: none; stroke-width: 1; stroke-dasharray: none; stroke-linecap: butt; stroke-dashoffset: 0; stroke-linejoin: miter; stroke-miterlimit: 4; fill: rgb(234,67,53); fill-rule: evenodd; opacity: 1;" vector-effect="non-scaling-stroke"  transform=" translate(-9.21, -5.16)" d="M 10.5 5.07386 C 12.1884 5.07386 13.7043 5.65409 14.8961 6.79364 L 18.1945 3.49523 C 16.2029 1.63955 13.5997 0.5 10.5 0.5 C 6.00451 0.5 2.11542 3.07705 0.223145 6.83545 L 4.06519 9.815 C 4.96951 7.09682 7.50474 5.07386 10.5 5.07386 Z" stroke-linecap="round" />
</g>
<g transform="matrix(1 0 0 1 242.27 251.36)" id="Ak2qfkX2IInzovsIqylTO"  >
<path style="stroke: none; stroke-width: 1; stroke-dasharray: none; stroke-linecap: butt; stroke-dashoffset: 0; stroke-linejoin: miter; stroke-miterlimit: 4; fill: rgb(251,188,5); fill-rule: evenodd; opacity: 1;" vector-effect="non-scaling-stroke"  transform=" translate(-2.53, -6)" d="M 5.06523 8.18506 C 4.83523 7.49506 4.70455 6.75802 4.70455 6.00006 C 4.70455 5.24211 4.83523 4.50506 5.06523 3.81506 L 5.06523 0.835518 L 1.22318 0.835518 C 0.444318 2.38802 0 4.14438 0 6.00006 C 0 7.85575 0.444318 9.61211 1.22318 11.1646 L 5.06523 8.18506 Z" stroke-linecap="round" />
</g>
<g transform="matrix(1 0 0 1 248.68 257.02)" id="-4wVTxSGtNjdrkowpkYyh"  >
<path style="stroke: none; stroke-width: 1; stroke-dasharray: none; stroke-linecap: butt; stroke-dashoffset: 0; stroke-linejoin: miter; stroke-miterlimit: 4; fill: rgb(52,168,83); fill-rule: evenodd; opacity: 1;" vector-effect="non-scaling-stroke"  transform=" translate(-9.17, -4.84)" d="M 10.5 9.49984 C 13.605 9.49984 16.2081 8.47006 18.1109 6.7137 L 14.3943 3.82825 C 13.3645 4.51825 12.0472 4.92597 10.5 4.92597 C 7.50474 4.92597 4.96951 2.90302 4.06519 0.184837 L 0.223145 0.184837 L 0.223145 3.16438 C 2.11542 6.92279 6.00451 9.49984 10.5 9.49984 Z" stroke-linecap="round" />
</g>
<g transform="matrix(1 0 0 1 254.74 254.04)" id="YG4WQD3Uf_bLvjccUfXYs"  >
<path style="stroke: none; stroke-width: 1; stroke-dasharray: none; stroke-linecap: butt; stroke-dashoffset: 0; stroke-linejoin: miter; stroke-miterlimit: 4; fill: rgb(66,133,244); fill-rule: evenodd; opacity: 1;" vector-effect="non-scaling-stroke"  transform=" translate(-6.02, -6.31)" d="M 11.54 3.26136 C 11.54 2.44591 11.4668 1.66182 11.3309 0.909088 L 0.5 0.909088 L 0.5 5.3575 L 6.68909 5.3575 C 6.4225 6.795 5.61227 8.01295 4.39432 8.8284 L 4.39432 11.7139 L 8.11091 11.7139 C 10.2855 9.71182 11.54 6.76363 11.54 3.26136 Z" stroke-linecap="round" />
</g>
</svg>